# xmcd
#
# Track frame offsets:
#	150
#	26940
#	52653
#	79581
#	100320
#
# Disc length: 2001 seconds
#
# Revision: 0
# Processed by: cddbd v1.5.2PL0 Copyright (c) Steve Scherf et al.
# Submitted via: audiograbber 1.83.01
#
DISCID=3207cf05
DTITLE=Mongo Santamaria - Live at Yanky Stadium - Live At Yankee Stadium
DYEAR=1900
DGENRE=Salsa
TTITLE0=Dr  Gasca
TTITLE1=Cousin Jodi
TTITLE2=Coyulde
TTITLE3=Black dice
TTITLE4=Naked
EXTD=
EXTT0=
EXTT1=
EXTT2=
EXTT3=
EXTT4=
PLAYORDER=
